<svg width="85" height="85" viewBox="0 0 85 85" fill="none" xmlns="http://www.w3.org/2000/svg">
<rect width="85" height="85" fill="black"/>
<path d="M15.988 45V45.5H16.488H21.624H22.124V45V26.588H32.088H32.588V26.088V21.384V20.884H32.088H22.124V17.16C22.124 16.4313 22.3298 15.9405 22.6793 15.611C23.0744 15.2684 23.6462 15.068 24.456 15.068H28.156V15.164H28.656H36.796V36.984C36.796 38.6556 37.1476 40.1492 37.8664 41.4498L37.8663 41.4499L37.8713 41.4585C38.6202 42.7521 39.6458 43.7612 40.9422 44.4776L40.9421 44.4777L40.9511 44.4825C42.2513 45.1667 43.758 45.5 45.456 45.5H53.856H54.356V45V40.296V39.796H53.856H45.696C44.8089 39.796 44.1645 39.5427 43.7023 39.0832C43.236 38.5882 42.98 37.907 42.98 36.984V9.96V9.46H42.48H32.588H32.088H28.656H28.156H24.36C21.8394 9.46 19.7871 10.1251 18.2637 11.51C16.7344 12.9003 15.988 14.7879 15.988 17.112V20.884H9H8.5V21.384V26.088V26.588H9H15.988V45ZM11.9161 74.4566L11.9192 74.4596C14.0328 76.501 16.8475 77.5 20.3074 77.5C23.7996 77.5 26.6319 76.502 28.7464 74.4596L28.7465 74.4595C30.8977 72.3807 31.9525 69.5785 31.9525 66.1123V48.5088V48.0088H31.4525H25.9563H25.4563V48.5088V66.1123C25.4563 67.9578 24.9722 69.3308 24.0648 70.2983L24.0645 70.2987C23.1958 71.2271 21.9667 71.7175 20.3074 71.7175C18.687 71.7175 17.4743 71.2301 16.6039 70.3016C15.7288 69.3346 15.2602 67.9602 15.2602 66.1123V48.5088V48.0088H14.7602H9.264H8.764V48.5088V66.1123C8.764 69.576 9.80028 72.3772 11.9161 74.4566ZM40.2966 76.4912V76.9912H40.7966H46.2929H46.7929V76.4912V58.8368C46.7929 56.9525 47.2627 55.5625 48.1363 54.5968C49.0401 53.6349 50.3034 53.1298 51.9927 53.1298C53.6844 53.1298 54.9272 53.6361 55.7953 54.5937L55.8008 54.5998L55.8065 54.6057C56.7051 55.534 57.1925 56.9169 57.1925 58.8368V60.2614V60.7614H57.6925H63.3414H63.8414V60.2614V58.3789C63.8414 55.0654 62.9325 52.4024 61.0585 50.4548C59.2174 48.4718 56.7179 47.5 53.6212 47.5C50.9068 47.5 48.7815 48.3144 47.3382 50.0149C47.0602 50.3359 46.8108 50.6854 46.5893 51.0629V48.5088V48.0088H46.0893H40.7966H40.2966V48.5088V76.4912ZM67.175 76.1834L67.175 76.1835L67.1826 76.1909C68.1083 77.0777 69.3274 77.5 70.7856 77.5C72.2728 77.5 73.4991 77.0802 74.3961 76.1834C75.3208 75.259 75.764 74.0376 75.764 72.5737C75.764 71.0838 75.3254 69.8463 74.4034 68.9204C73.5097 67.9538 72.2811 67.4947 70.7856 67.4947C69.3172 67.4947 68.0944 67.9576 67.1715 68.9166C66.2469 69.843 65.8072 71.0817 65.8072 72.5737C65.8072 74.0376 66.2504 75.259 67.175 76.1834ZM58.9256 44.2417L58.9256 44.2417L58.9328 44.2454C60.5858 45.0888 62.5393 45.5 64.776 45.5C67.0127 45.5 68.9662 45.0888 70.6192 44.2454L70.6193 44.2454L70.6264 44.2417C72.2792 43.3647 73.551 42.1112 74.4306 40.488C75.341 38.8352 75.788 36.9261 75.788 34.776V19.176C75.788 17.0271 75.3415 15.1327 74.4296 13.5101C73.5497 11.8874 72.2772 10.6494 70.6228 9.80444C68.9688 8.9277 67.0139 8.5 64.776 8.5C62.5381 8.5 60.5832 8.9277 58.9292 9.80444C57.2751 10.6492 55.9878 11.8863 55.0762 13.5069L55.0762 13.5068L55.0724 13.5139C54.1933 15.1368 53.764 17.0461 53.764 19.224V34.776C53.764 36.9237 54.1939 38.8307 55.0703 40.4824L55.0702 40.4824L55.0762 40.4931C55.9875 42.1132 57.2737 43.3651 58.9256 44.2417ZM68.4487 38.7003L68.4486 38.7002L68.4429 38.7064C67.6353 39.5697 66.4408 40.036 64.776 40.036C63.1473 40.036 61.9466 39.5717 61.1033 38.7003C60.2913 37.8612 59.8373 36.6395 59.8058 34.9648L69.748 24.2779V34.776C69.748 36.548 69.291 37.83 68.4487 38.7003ZM68.4487 15.2997C69.2607 16.1388 69.7147 17.3605 69.7462 19.0352L59.804 29.7221V19.224C59.804 17.452 60.2611 16.17 61.1033 15.2997C61.9466 14.4283 63.1473 13.964 64.776 13.964C66.4408 13.964 67.6353 14.4303 68.4429 15.2936L68.4428 15.2936L68.4487 15.2997Z" fill="#00FF00" stroke="#00FF00"/>
</svg>
